<svg version="1.0" xmlns="http://www.w3.org/2000/svg" width="421.333" height="421.333" viewBox="0 0 316 316"><path d="M161.5 5.2c1.1.6 2.5 1.9 3.2 2.7.8 1 1.2 1.1 1.3.4 0-1.3-3.8-4.3-5.5-4.3-.5 0-.1.6 1 1.2zM153 7.5c-.7.8-1.5 1.3-1.9 1-.4-.2-.8 1.5-1 3.9-.1 3 .3 4.7 1.6 5.8 2.7 2.3 6.2 3.1 7.8 1.8.8-.6 1.8-.9 2.3-.6.5.3.9 0 1-.7.1-.7.5-2.8.8-4.9.5-2.8.2-4-1.5-5.7-2.4-2.4-7.3-2.8-9.1-.6zm13.2 4.5c0 1.4.2 1.9.5 1.2.2-.6.2-1.8 0-2.5-.3-.6-.5-.1-.5 1.3zm2.1 13.7c-5.7 1.1-9.6 9.7-7.3 15.8 1.7 4.6 4.9 7.4 12.5 11.2 11.3 5.7 27.1 18 25.3 19.8-.3.3-3.5-.8-7.1-2.4-9.6-4.3-27.1-9.7-35.8-11.1-4.2-.7-12.3-1.1-18-.8-11.9.4-18.6 2.9-25.7 9.2-7 6.4-9.1 16.5-4.7 23.2 2.3 3.5 9.9 8.2 16.4 10.1 6.6 1.9 26.5 1.4 49.6-1.2 32.2-3.7 51.2 1.2 67.2 17.3 4 4 7.3 7 7.3 6.7 0-1.8-9.9-24.4-14.2-32.5C219 63.1 196.2 35.3 182 28c-3.8-1.9-10.2-3-13.7-2.3zm-62 82.2c-1.8 1.1-3.9 3.4-4.8 5-1.6 3.2-2 9.8-.6 11.9.5.8.7-.6.4-3.5-.5-6 1.9-10.2 7.2-12.7 4.4-2.1 9.2-1.5 12.7 1.5 2 1.8 2 2 .3 1.3-8.3-3.1-15.5-.4-17.6 6.6-1 3.2-.9 4.4.7 7.6 3.7 7.5 11 9.1 17.4 3.8 4.2-3.5 5.6-8.4 3.5-12.4-.9-1.7-1.4-3.4-1.1-3.9.3-.4-.8-2.1-2.4-3.6-3.9-3.8-11.1-4.5-15.7-1.6z"/><path d="M181.7 114.1c-4.6 1.1-10.9 4.2-12.6 6.3-1.9 2.3-1.6 7.4.5 10.4 1.1 1.5 4.6 4 7.8 5.6 8.1 4.1 17.5 4.6 32 1.6 18.5-3.8 32.3-1.8 44.6 6.5 6.2 4.2 5.4 2.2-2.7-6.5-14.9-16.1-35.2-25.1-56.2-24.9-5.3.1-11.3.5-13.4 1zM82.4 122c-10.8 2.3-24.5 18.9-31.4 38-12.3 33.6-7.7 70.6 12.7 101.3 5.7 8.5 19.9 23.8 21.7 23.1.6-.2 2.2.9 3.3 2.5 5.5 7.3 24.2 17 42.2 21.9 8.6 2.3 11.5 2.5 27.1 2.5 15.6 0 18.5-.2 27.1-2.5 34.2-9.2 60.2-30.2 75.5-61.2 6.6-13.4 10.3-27.2 11.1-41.1.6-11.7-.4-16.3-5-23.2-3.1-4.7-12.3-11.3-15.7-11.3-.8 0 .8 1.3 3.6 3 12.7 7.2 18.1 21.9 13.4 36.1-6.8 20.1-25.9 38.1-49.5 46.4-2.7.9-5.7 2-6.5 2.3-14 5-32.3 5-58 0-20.7-4-41.2-4.9-52.6-2.2-4.3 1-8.2 1.7-8.6 1.6-.5-.1-.8.3-.8.9 0 .5-.4.7-1 .4-.5-.3-1-.1-1 .5s-.4.9-.9.6c-.5-.3-2.3 1-4 3-2.3 2.6-3 4.2-2.6 5.7.5 1.7.4 1.9-.4.7s-1.1-.8-1.1 1.8c0 2.2.4 3.1 1.1 2.6.8-.4.9 0 .4 1.5-.4 1.3-.2 2.1.5 2.1.6 0 .8.4.5 1-.3.5-.1 1 .5 1s.8.5.4 1.2c-.5.8-1.4-.2-2.6-2.7-9.8-21.9 22.4-33 67.9-23.5 22.6 4.7 40.7 4.7 59-.1 26-6.8 47.1-24.4 53.3-44.7 4.1-13.3 1.6-24-7.4-31.9-13.8-12.1-37.1-10.2-60.3 4.8l-6.2 4.1-10-4.1c-35.9-14.7-74.2-19.1-100.9-11.4-8.3 2.3-5.7 2.4 3.3.1 12.5-3.3 36.8-3 53.5.5 14 3 29.2 7.7 42.3 13.2 7.6 3.2 8.7 4 7.5 5.2-1.2 1.1-3 .7-12.1-3.2-13.7-5.7-29.8-10.8-43.5-13.7-8.7-1.9-13.7-2.3-26.7-2.3-15 .1-21.7.9-31 4-1.7.6-1.8.5-.5-.5s1.2-1.1-.3-.6c-1 .3-2.1.6-2.3.6-.3 0-.2.5.2 1.2s.3.8-.5.4c-1.5-1-7.2 2.6-11 7-3.1 3.5-3.1 3.5-4 1.2-.5-1.3-1.2-4.3-1.5-6.8-.4-2.5-1-5.3-1.3-6.4-.3-1.1-.1-1.6.5-1.2.5.3 1.2-.8 1.5-2.4 1.5-7.4 12.1-14.5 30.7-20.5 11.4-3.8 15-7.2 15-14.4 0-4.1-.5-5.6-2.7-8.1-3.2-3.5-7.5-4.9-11.9-4zm-30.8 68.2c3.9 11.9 15.9 24.4 29.8 31.2 6.6 3.2 9.6 4.1 23.1 7.5 3.6 1 3.5 1-2 .5-31.5-2.8-54.8-24.2-54.4-49.9l.1-6 .9 6c.5 3.2 1.6 8.1 2.5 10.7zM164 209.4c0 .2-.8 1-1.7 1.7-1.6 1.3-1.7 1.2-.4-.4 1.3-1.6 2.1-2.1 2.1-1.3zm-32.3 17.2c-.3.3-1.2.4-1.9.1-.8-.3-.5-.6.6-.6 1.1-.1 1.7.2 1.3.5zm-9.4 1.1c-2.4.2-6.2.2-8.5 0-2.4-.2-.5-.4 4.2-.4s6.6.2 4.3.4zM262.7 240c-10.6 24.5-30.8 45.9-54.5 57.9-14.2 7.2-34.8 12.1-50.7 12.1-10.3 0-25.3-2.5-35.8-6-9-3-20.8-8.8-23.7-11.6-.8-.8 1.7.3 5.5 2.3 15.3 8.1 35.2 11.9 58.5 11 17.8-.6 29.5-3.4 44.5-10.5 12.9-6.2 20.7-11.5 30.3-20.6 11.7-11.2 21.4-25.1 26.3-37.9 1.2-3.1 2.4-5.5 2.6-5.3.3.3-1.1 4.1-3 8.6zM157.5 124c1 1.1 2 2 2.3 2 .3 0-.3-.9-1.3-2s-2-2-2.3-2c-.3 0 .3.9 1.3 2zm-9 2c-1.5 1.6-1.7 2.6-.9 4.8 1.3 3.7 5.7 5.2 8.4 2.7 2.2-2 2.7-6.4.8-8.3-1.9-1.9-6.3-1.4-8.3.8z"/><path d="M102 127.4c0 .2.8 1 1.8 1.7 1.5 1.3 1.6 1.2.3-.4s-2.1-2.1-2.1-1.3zm25.5 9.9c-3 2.5-4.4 9.2-2.7 12.3.8 1.5.9.9.5-2.3-.5-3.9-.2-4.6 3.1-7.9 3.1-3.1 4.1-3.6 7.4-3.2 2 .3 4.6.8 5.7 1.3l2 .8-2-1.6c-3.1-2.5-10.8-2.2-14 .6z"/><path d="M129.9 140.9c-3.7 3.7-3.8 7.9-.3 12 3.3 4 8 4.2 12.2.6 3.4-2.9 5-7.8 3.2-10-.6-.8-.8-2-.4-2.7.4-.7.4-1-.1-.6-.4.4-1.7.1-2.9-.7-3.5-2.5-8.4-1.9-11.7 1.4zm110.9 29.8c.7.3 1.6.2 1.9-.1.4-.3-.2-.6-1.3-.5-1.1 0-1.4.3-.6.6zm6 1c.7.3 1.6.2 1.9-.1.4-.3-.2-.6-1.3-.5-1.1 0-1.4.3-.6.6z"/></svg>