<?xml version="1.0" standalone="no"?>
<!DOCTYPE svg PUBLIC "-//W3C//DTD SVG 20010904//EN"
 "http://www.w3.org/TR/2001/REC-SVG-20010904/DTD/svg10.dtd">
<svg version="1.0" xmlns="http://www.w3.org/2000/svg"
 width="316.000000pt" height="316.000000pt" viewBox="0 0 316.000000 316.000000"
 preserveAspectRatio="xMidYMid meet">
<metadata>
Created by potrace 1.11, written by Peter Selinger 2001-2013
</metadata>
<g transform="translate(0.000000,316.000000) scale(0.100000,-0.100000)"
fill="#000000" stroke="none">
<path d="M1615 3108 c11 -6 25 -19 32 -27 8 -10 12 -11 13 -4 0 13 -38 43 -55
43 -5 0 -1 -6 10 -12z"/>
<path d="M1530 3085 c-7 -8 -15 -13 -19 -10 -4 2 -8 -15 -10 -39 -1 -30 3 -47
16 -58 27 -23 62 -31 78 -18 8 6 18 9 23 6 5 -3 9 0 10 7 1 7 5 28 8 49 5 28
2 40 -15 57 -24 24 -73 28 -91 6z"/>
<path d="M1662 3040 c0 -14 2 -19 5 -12 2 6 2 18 0 25 -3 6 -5 1 -5 -13z"/>
<path d="M1683 2903 c-57 -11 -96 -97 -73 -158 17 -46 49 -74 125 -112 113
-57 271 -180 253 -198 -3 -3 -35 8 -71 24 -96 43 -271 97 -358 111 -42 7 -123
11 -180 8 -119 -4 -186 -29 -257 -92 -70 -64 -91 -165 -47 -232 23 -35 99 -82
164 -101 66 -19 265 -14 496 12 322 37 512 -12 672 -173 40 -40 73 -70 73 -67
0 18 -99 244 -142 325 -148 279 -376 557 -518 630 -38 19 -102 30 -137 23z"/>
<path d="M1063 2081 c-18 -11 -39 -34 -48 -50 -16 -32 -20 -98 -6 -119 5 -8 7
6 4 35 -5 60 19 102 72 127 44 21 92 15 127 -15 20 -18 20 -20 3 -13 -83 31
-155 4 -176 -66 -10 -32 -9 -44 7 -76 37 -75 110 -91 174 -38 42 35 56 84 35
124 -9 17 -14 34 -11 39 3 4 -8 21 -24 36 -39 38 -111 45 -157 16z"/>
<path d="M1817 2019 c-46 -11 -109 -42 -126 -63 -19 -23 -16 -74 5 -104 11
-15 46 -40 78 -56 81 -41 175 -46 320 -16 185 38 323 18 446 -65 62 -42 54
-22 -27 65 -149 161 -352 251 -562 249 -53 -1 -113 -5 -134 -10z"/>
<path d="M824 1940 c-108 -23 -245 -189 -314 -380 -123 -336 -77 -706 127
-1013 57 -85 199 -238 217 -231 6 2 22 -9 33 -25 55 -73 242 -170 422 -219 86
-23 115 -25 271 -25 156 0 185 2 271 25 342 92 602 302 755 612 66 134 103
272 111 411 6 117 -4 163 -50 232 -31 47 -123 113 -157 113 -8 0 8 -13 36 -30
127 -72 181 -219 134 -361 -68 -201 -259 -381 -495 -464 -27 -9 -57 -20 -65
-23 -140 -50 -323 -50 -580 0 -207 40 -412 49 -526 22 -43 -10 -82 -17 -86
-16 -5 1 -8 -3 -8 -9 0 -5 -4 -7 -10 -4 -5 3 -10 1 -10 -5 0 -6 -4 -9 -9 -6
-5 3 -23 -10 -40 -30 -23 -26 -30 -42 -26 -57 5 -17 4 -19 -4 -7 -8 12 -11 8
-11 -18 0 -22 4 -31 11 -26 8 4 9 0 4 -15 -4 -13 -2 -21 5 -21 6 0 8 -4 5 -10
-3 -5 -1 -10 5 -10 6 0 8 -5 4 -12 -5 -8 -14 2 -26 27 -98 219 224 330 679
235 226 -47 407 -47 590 1 260 68 471 244 533 447 41 133 16 240 -74 319 -138
121 -371 102 -603 -48 l-62 -41 -100 41 c-359 147 -742 191 -1009 114 -83 -23
-57 -24 33 -1 125 33 368 30 535 -5 140 -30 292 -77 423 -132 76 -32 87 -40
75 -52 -12 -11 -30 -7 -121 32 -137 57 -298 108 -435 137 -87 19 -137 23 -267
23 -150 -1 -217 -9 -310 -40 -17 -6 -18 -5 -5 5 13 10 12 11 -3 6 -10 -3 -21
-6 -23 -6 -3 0 -2 -5 2 -12 4 -7 3 -8 -5 -4 -15 10 -72 -26 -110 -70 -31 -35
-31 -35 -40 -12 -5 13 -12 43 -15 68 -4 25 -10 53 -13 64 -3 11 -1 16 5 12 5
-3 12 8 15 24 15 74 121 145 307 205 114 38 150 72 150 144 0 41 -5 56 -27 81
-32 35 -75 49 -119 40z m-308 -682 c39 -119 159 -244 298 -312 66 -32 96 -41
231 -75 36 -10 35 -10 -20 -5 -315 28 -548 242 -544 499 l1 60 9 -60 c5 -32
16 -81 25 -107z m1124 -192 c0 -2 -8 -10 -17 -17 -16 -13 -17 -12 -4 4 13 16
21 21 21 13z m-323 -172 c-3 -3 -12 -4 -19 -1 -8 3 -5 6 6 6 11 1 17 -2 13 -5z
m-94 -11 c-24 -2 -62 -2 -85 0 -24 2 -5 4 42 4 47 0 66 -2 43 -4z m1404 -123
c-106 -245 -308 -459 -545 -579 -142 -72 -348 -121 -507 -121 -103 0 -253 25
-358 60 -90 30 -208 88 -237 116 -8 8 17 -3 55 -23 153 -81 352 -119 585 -110
178 6 295 34 445 105 129 62 207 115 303 206 117 112 214 251 263 379 12 31
24 55 26 53 3 -3 -11 -41 -30 -86z"/>
<path d="M1575 1920 c10 -11 20 -20 23 -20 3 0 -3 9 -13 20 -10 11 -20 20 -23
20 -3 0 3 -9 13 -20z"/>
<path d="M1485 1900 c-15 -16 -17 -26 -9 -48 13 -37 57 -52 84 -27 22 20 27
64 8 83 -19 19 -63 14 -83 -8z"/>
<path d="M1020 1886 c0 -2 8 -10 18 -17 15 -13 16 -12 3 4 -13 16 -21 21 -21
13z"/>
<path d="M1275 1787 c-30 -25 -44 -92 -27 -123 8 -15 9 -9 5 23 -5 39 -2 46
31 79 31 31 41 36 74 32 20 -3 46 -8 57 -13 l20 -8 -20 16 c-31 25 -108 22
-140 -6z"/>
<path d="M1299 1751 c-37 -37 -38 -79 -3 -120 33 -40 80 -42 122 -6 34 29 50
78 32 100 -6 8 -8 20 -4 27 4 7 4 10 -1 6 -4 -4 -17 -1 -29 7 -35 25 -84 19
-117 -14z"/>
<path d="M2408 1453 c7 -3 16 -2 19 1 4 3 -2 6 -13 5 -11 0 -14 -3 -6 -6z"/>
<path d="M2468 1443 c7 -3 16 -2 19 1 4 3 -2 6 -13 5 -11 0 -14 -3 -6 -6z"/>
</g>
</svg>
